<svg xmlns="http://www.w3.org/2000/svg" width="146.903" height="68.419" viewBox="0 0 146.903 68.419"><defs><style>.a{fill:rgba(0,0,0,0);}.b{fill:#107b10;}</style></defs><rect class="a" width="146.903" height="68.419" transform="translate(0 0)"/><g transform="translate(8.569 5.849)"><path class="b" d="M12.829,5a2.447,2.447,0,0,1,2.04.952,4.839,4.839,0,0,1,.68,2.584,4.463,4.463,0,0,1-.816,2.856,2.8,2.8,0,0,1-2.312.952h0V10.713h0a1.432,1.432,0,0,0,1.36-.544,2.9,2.9,0,0,0,.408-1.632,4.024,4.024,0,0,0-.272-1.36,1.235,1.235,0,0,0-.952-.408.969.969,0,0,0-.816.408,4.574,4.574,0,0,0-.544,1.36l-.136.68a4.6,4.6,0,0,1-.952,2.176,2.586,2.586,0,0,1-1.768.68,2.021,2.021,0,0,1-1.768-.816A4.039,4.039,0,0,1,6.3,8.809a5,5,0,0,1,.68-2.72,2.893,2.893,0,0,1,2.04-.952h0V6.768h0a1.1,1.1,0,0,0-1.088.544,2.188,2.188,0,0,0-.408,1.5A2.716,2.716,0,0,0,7.8,10.033a.822.822,0,0,0,.816.408.822.822,0,0,0,.816-.408,4.574,4.574,0,0,0,.544-1.36l.136-.816a6.211,6.211,0,0,1,.952-2.312A3.858,3.858,0,0,1,12.829,5ZM11.2,53.288a5.332,5.332,0,0,0-.952,2.312l-.136.816a2.557,2.557,0,0,1-.544,1.36.822.822,0,0,1-.816.408.969.969,0,0,1-.816-.408,2.716,2.716,0,0,1-.272-1.224,2.443,2.443,0,0,1,.408-1.5,2.049,2.049,0,0,1,1.088-.544h0V52.879h0a2.456,2.456,0,0,0-2.04.952,3.843,3.843,0,0,0-.68,2.72A4.039,4.039,0,0,0,7.116,59a2.193,2.193,0,0,0,1.768.816,2.586,2.586,0,0,0,1.768-.68A4.055,4.055,0,0,0,11.6,56.96l.136-.68c.136-.68.272-1.224.544-1.36a.822.822,0,0,1,.816-.408,1.235,1.235,0,0,1,.952.408c.272.272.272.68.272,1.36a2.9,2.9,0,0,1-.408,1.632,1.432,1.432,0,0,1-1.36.544h0v1.632h0a3.282,3.282,0,0,0,2.312-.952,5.332,5.332,0,0,0,.136-5.441,2.289,2.289,0,0,0-2.04-.952A1.889,1.889,0,0,0,11.2,53.288ZM15.413,31.8v1.768h0a2.107,2.107,0,0,1-1.088.272h-.952c-.544,0-.952.136-1.088.408-.272.272-.272.544-.272,1.088v2.176h3.4v1.768H6.572V34.789a2.917,2.917,0,0,1,.544-1.632l-.136.136a.293.293,0,0,1,.272-.272A2.193,2.193,0,0,1,9.02,32.2,2.207,2.207,0,0,1,11.2,33.7a2.44,2.44,0,0,1,.68-.952,2.716,2.716,0,0,1,1.224-.272l1.36-.136a3.409,3.409,0,0,1,.952-.544ZM9.156,33.7a1.235,1.235,0,0,0-.952.408A1.466,1.466,0,0,0,7.932,35.2v2.176h2.72V35.2a1.545,1.545,0,0,0-.408-1.088A1.339,1.339,0,0,0,9.156,33.7ZM6.572,28.124h8.841V26.355H6.572Zm1.5-12.378h-1.5v6.529h8.841V15.746h-1.5v4.9H11.6V16.29h-1.5v4.353H8.068Zm0,26.932h-1.5v6.529h8.841V42.678h-1.5v4.9H11.6V43.222h-1.5v4.353H8.068ZM19.222,60.089H31.056l8.977-12.242-5.849-8.161ZM70.774,5.272H58.94L51.6,15.338,57.444,23.5Zm-38.086,0H20.854L60.708,60.089H72.542Z" transform="translate(-6.3 -4.32)"/><rect class="b" width="2.448" height="54.817" transform="translate(73.996 0.952)"/><g transform="translate(85.421)"><path class="b" d="M74,30.48a16.707,16.707,0,0,0,7.753,3.945l5.577-7.753c-3.128-.816-4.081-1.36-5.441-2.448-1.632-1.224-2.04-2.448-2.04-4.761A5.54,5.54,0,0,1,82.43,14.43C84.2,13.205,86.1,12.8,89.5,12.8c9.249,0,12.242,4.217,14.418,7.481l5.3-7.345a20.791,20.791,0,0,0-3.673-4.081C102.153,5.86,96.168,4.5,89.367,4.5c-5.713,0-11.154,1.36-14.554,3.945A14.858,14.858,0,0,0,69.1,19.734,15.629,15.629,0,0,0,74,30.48Z" transform="translate(-69.1 -4.5)"/><path class="b" d="M108.738,27.433c-2.448-2.312-5.849-3.673-11.29-5.033l-5.713,7.889.952.272a16.78,16.78,0,0,1,7.617,3.265,5.192,5.192,0,0,1,2.312,4.625c0,2.856-.68,4.489-2.72,5.985s-4.489,2.04-8.3,2.04c-6.529,0-13.194-2.856-16.05-9.794L69.7,44.571a20.255,20.255,0,0,0,4.625,5.577c3.809,3.128,10.066,4.761,17,4.761,6.393,0,12.514-1.632,16.051-4.489,3.945-3.128,5.985-6.665,5.985-12.242A14.282,14.282,0,0,0,108.738,27.433Z" transform="translate(-68.884 1.948)"/></g></g></svg>