<svg xmlns="http://www.w3.org/2000/svg" width="78.426" height="39.413" viewBox="0 0 78.426 39.413"><path d="M35.4,43.814h7.093V40.223H38.9V20.982h3.591V13.8H35.4Z" transform="translate(-19.706 -7.682)"/><path d="M15.7,45h6.561V42.476H18.316v-13.7h3.946V23.9H15.7Z" transform="translate(-8.74 -13.304)"/><path d="M0,46.153H5.01V43.581H2.394V35.424H5.01V31.7H0Z" transform="translate(0 -17.646)"/><path d="M125.6,20.982h3.591V40.223H125.6v3.591h7.138V13.8H125.6Z" transform="translate(-69.917 -7.682)"/><path d="M146.5,28.777h3.99v13.7H146.5V45h6.606V23.9H146.5Z" transform="translate(-81.551 -13.304)"/><path d="M165.8,31.7v3.724h2.616v8.157H165.8v2.571h4.921V31.7Z" transform="translate(-92.295 -17.646)"/><path d="M59.7,8.069H81.382V35.955H59.7ZM56.2,39.413H84.928V0H56.2Z" transform="translate(-31.284)"/></svg>