<svg xmlns="http://www.w3.org/2000/svg" xmlns:xlink="http://www.w3.org/1999/xlink" width="80.362" height="60.428" viewBox="0 0 80.362 60.428"><defs><style>.a{fill:none;}.b{clip-path:url(#a);}</style><clipPath id="a"><rect class="a" width="80.362" height="30.886"/></clipPath></defs><g transform="translate(68.94 -4.1)"><path d="M334.86,8.494,330.934,4.1H307.626L303.7,8.494l.053,22.892h31.213ZM308.45,6.01h21.6l1.759,1.963H306.645Zm-2.787,23.413-.053-19.48H332.95L333,29.423Z" transform="translate(-348.091)"/><path d="M464.923,128.951l-1.4-1.443-3.307,3.307V122.6H458.2v8.215l-3.307-3.307-1.4,1.4,5.738,5.731Z" transform="translate(-488.023 -110.694)"/><rect width="11.937" height="1.963" transform="translate(-34.727 25.497)"/><g class="b" transform="translate(-68.94 33.642)"><path d="M89.6,705.62h1.089v-.627h7.738v.593h1.12V698.74H89.6Zm1.089-5.94h7.737v1.7H90.689Zm0,2.59h7.737v1.779H90.689Z" transform="translate(-79.156 -682.521)"/><path d="M175.75,598.354H176.8v-.79h3.845v.725h1.089V592H175.75Zm1.054-5.345h3.845v3.564h-3.843Z" transform="translate(-159.63 -582.813)"/><g transform="translate(7.721 7.722)"><path d="M52.362,575.864c.841.577,2.177,1.515,2.673,1.947l.775-.791c-.479-.329-2.442-1.534-3.1-1.9a2.109,2.109,0,0,0,.083-.3H55.96V573.9H52.972c.016-.248.033-.478.033-.692v-1.026H55.53v-.941H50.893c.132-.329.264-.676.363-1.007.182.016.281-.033.329-.148l-1.252-.329a9.237,9.237,0,0,1-1.713,3.432,6.857,6.857,0,0,1,.809.544,8.2,8.2,0,0,0,1.023-1.551h1.5v1.007a5.354,5.354,0,0,1-.033.709h-3.5v.922h3.3c-.363,1.039-1.252,2.178-3.449,3.036a3.883,3.883,0,0,1,.707.777,6.946,6.946,0,0,0,3.383-2.771" transform="translate(-48.27 -569.76)"/><path d="M335.926,666.68H324.707v.775h10.113v.988H325.2v.775h9.618v.988H324.61V671h4.752l-.561.512a9.743,9.743,0,0,1,2.673,1.766l.725-.693A8.206,8.206,0,0,0,329.773,671h6.154Z" transform="translate(-306.405 -660.295)"/><path d="M302.54,574.87l.346,1.007a.246.246,0,0,0,.215-.215c.659-.049,1.468-.115,2.376-.2v.759h1.04v-.842c.89-.082,1.814-.165,2.738-.264l.017-.693-2.755.2v-.841h2.194v-.759h-2.194V572.2h2.641v-.777h-2.641v-.856c.214-.033.313-.115.329-.231l-1.369-.082v1.169h-2.756v.777h2.756v.825h-2.261v.759h2.261v.908Z" transform="translate(-285.789 -570.218)"/><path d="M418.019,576.206h1.054V575.4h3.371v-.759h-3.369v-.856h2.458v-.761h-2.458V572.2h2.986v-.777h-2.986v-.856c.214-.033.3-.115.313-.231l-1.369-.082v1.169h-2.805v.777h2.805v.825h-2.244v.76h2.244v.856H415v.759h3.019Z" transform="translate(-390.841 -570.218)"/><path d="M298.521,748.818l.856.644a4.525,4.525,0,0,0,2.458-3.052l-.957-.329a4.172,4.172,0,0,1-2.359,2.739" transform="translate(-282.034 -734.465)"/><path d="M472.441,744.81l-.841.561a11.572,11.572,0,0,1,3.019,2.887l.907-.627a11,11,0,0,0-3.085-2.822" transform="translate(-443.712 -733.278)"/><path d="M370.911,748.183h-3.083c-.874,0-1.022-.066-1.022-.461v-1.779c.214-.016.3-.1.314-.215l-1.419-.1v2.095c0,1.155.412,1.436,2.062,1.436h3.267c1.27,0,1.617-.38,1.749-2.1a3.21,3.21,0,0,1-.988-.38c-.066,1.337-.181,1.5-.874,1.5" transform="translate(-344.789 -734.044)"/><path d="M693.884,575.51l-1.054.429a21.768,21.768,0,0,0,5.216,6.652,5.292,5.292,0,0,1,.922-.988,17.3,17.3,0,0,1-5.082-6.088" transform="translate(-650.368 -575.131)"/><path d="M551.578,576.628c.215.016.329-.034.4-.148l-1.418-.48a14.777,14.777,0,0,1-5.016,6.369,6.79,6.79,0,0,1,.874.791,16.377,16.377,0,0,0,5.164-6.534" transform="translate(-512.781 -575.589)"/><path d="M569.912,666.706h-9.57v1.089h3.547c-.4,2.9-1.337,5.675-5.329,7.012a3.793,3.793,0,0,1,.71.94c4.422-1.581,5.347-4.785,5.791-7.952H569.6c-.214,4.389-.478,6.1-.907,6.534-.165.181-.362.214-.709.214-.4,0-1.468-.016-2.59-.116a2.569,2.569,0,0,1,.363,1.105c.709.049,1.419.066,1.976.066,1.007,0,1.5-.049,1.964-.577.577-.627.826-2.54,1.089-7.87,0-.132.016-.28.016-.4l-.627-.066Z" transform="translate(-524.943 -660.305)"/><path d="M906.706,577.366a3.987,3.987,0,0,1,.693-.875,10.263,10.263,0,0,1-3.2-1.682,24.466,24.466,0,0,0,2.458-1.816c.165,0,.3-.016.346-.082l-.988-.743a19.628,19.628,0,0,1-2.475,2.079,11.334,11.334,0,0,1-1.054-1.12,27.12,27.12,0,0,0,2.376-1.832.362.362,0,0,0,.329-.082l-.988-.725a17.484,17.484,0,0,1-2.211,1.963,9.819,9.819,0,0,1-1.171-2.161l-.891.281a12.361,12.361,0,0,0,3.316,4.752H900.09v1.318a2.542,2.542,0,0,1-1.6,2.458,3.211,3.211,0,0,1,.725.693,3.48,3.48,0,0,0,1.831-3.564h2.425v1.634c0,.825,0,1.435,1.172,1.435h.841c1.252,0,1.287-.363,1.37-1.186a2.582,2.582,0,0,1-.825-.412c-.033.693-.049.776-.659.776h-.544c-.314,0-.379,0-.379-.479V576.23a11.218,11.218,0,0,0,2.26,1.139" transform="translate(-842.48 -570.255)"/><path d="M905.553,719.919c.033-.05.1-.1.116-.165l-.627-.263-.182.049h-5.642v.825h1.353l-.659.2a6.991,6.991,0,0,0,1.831,2.425,10,10,0,0,1-3.233,1.2,3.345,3.345,0,0,1,.527.825,11.569,11.569,0,0,0,3.5-1.435A10.4,10.4,0,0,0,906.164,725a4.883,4.883,0,0,1,.677-.94,10.467,10.467,0,0,1-3.432-1.106,7.135,7.135,0,0,0,2.144-3.035m-2.97,2.51a5.545,5.545,0,0,1-1.766-2.063H904.3a6.122,6.122,0,0,1-1.713,2.063" transform="translate(-842.498 -709.626)"/><path d="M803.071,591.41h-3.25c.1-.544.214-1.12.3-1.682h2.689v.363h1.007v-4.042h-2.128a10.735,10.735,0,0,0,2.937-3.764.4.4,0,0,0,.181-.149l-.742-.4-.2.066h-5.214v.922h4.569a11.756,11.756,0,0,1-5.658,4.636,4.533,4.533,0,0,1,.659.825,13.818,13.818,0,0,0,2.26-1.238h2.327v1.881h-3.481c-.182,1.221-.5,2.789-.743,3.8l.941.148.115-.495h3.135c-.182,1.9-.363,2.706-.644,2.954a.879.879,0,0,1-.627.148c-.314,0-1.221-.017-2.161-.1a2.364,2.364,0,0,1,.329.957c.677.033,1.353.049,1.831.049.71,0,1.12-.049,1.453-.4.428-.412.659-1.468.891-4.075l.049-.329-.578-.1Z" transform="translate(-748.199 -580.951)"/><path d="M819.2,606.788a9.539,9.539,0,0,0-1.93-1.468l-.659.61a9.5,9.5,0,0,1,1.9,1.535Z" transform="translate(-765.994 -602.977)"/></g></g></g></svg>