<svg xmlns="http://www.w3.org/2000/svg" xmlns:xlink="http://www.w3.org/1999/xlink" width="101.673" height="49.56" viewBox="0 0 101.673 49.56"><defs><style>.a{clip-path:url(#a);}</style><clipPath id="a"><rect width="101.673" height="49.56"/></clipPath></defs><g class="a"><g class="a"><path d="M50.75,12.5a.1.1,0,0,1,.052.026C55.46,16.07,63.443,24.84,61.01,27.317a15.587,15.587,0,0,1-20.52,0C38.057,24.84,46.04,16.07,50.7,12.528a.062.062,0,0,1,.052-.026M58.862,2.277a15.606,15.606,0,0,0-16.234,0,.059.059,0,0,0-.026.078c.009.026.043.035.078.026,3.022-.649,7.6,1.957,8.035,2.217.009.009.017.009.035.009s.026-.009.035-.009c.433-.26,5.022-2.866,8.035-2.217a.066.066,0,0,0,.078-.026.064.064,0,0,0-.035-.078M39.84,4.468a.48.48,0,0,0-.069.052,15.595,15.595,0,0,0-1.42,20.511.067.067,0,0,0,.087.026.066.066,0,0,0,.017-.078C37.26,21.3,43.338,12.39,46.472,8.658a.066.066,0,0,0,.017-.043.062.062,0,0,0-.026-.052C41.71,3.836,40.1,4.338,39.84,4.468m15.186,4.1A.052.052,0,0,0,55,8.615a.066.066,0,0,0,.017.043C58.152,12.39,64.23,21.3,63.044,24.97a.066.066,0,0,0,.017.078c.026.017.061,0,.087-.026a15.583,15.583,0,0,0-1.42-20.5.208.208,0,0,0-.069-.052c-.268-.13-1.879-.632-6.632,4.1M20.9,36.027H18.61L13.441,49.265h2.1l1.281-3.429h5.87l1.281,3.429h2.1ZM17.468,44.07l2.286-6.061,2.286,6.061Zm-5.082-1.784v6.979h-1.9V47.534a4.793,4.793,0,0,1-1.8,1.515,5.706,5.706,0,0,1-2.494.519,6.705,6.705,0,0,1-2.571-.476,5.483,5.483,0,0,1-1.983-1.437,6.326,6.326,0,0,1-1.3-2.2,8.616,8.616,0,0,1-.433-2.8,8.7,8.7,0,0,1,.433-2.823A6.1,6.1,0,0,1,1.64,37.646a5.488,5.488,0,0,1,2.026-1.42A6.977,6.977,0,0,1,6.29,35.75a6.329,6.329,0,0,1,4.035,1.264,5.228,5.228,0,0,1,1.9,3.4v.026H10.143v-.017a3.4,3.4,0,0,0-1.316-2.1,4.147,4.147,0,0,0-2.52-.771,3.9,3.9,0,0,0-3.134,1.385A5.526,5.526,0,0,0,2,42.668,5.571,5.571,0,0,0,3.173,46.4,4.013,4.013,0,0,0,6.35,47.785a4.187,4.187,0,0,0,2.9-1.074,3.639,3.639,0,0,0,1.238-2.675h-3.9V42.313h5.792Zm32.373-4.442v3.836h6.58v1.688h-6.58v4.078H52.2v1.818H42.741V36.027H52.2v1.818Zm-4.043-1.818V49.265H38.767V38.754c-.251.736-.589,1.654-1,2.727l-2.987,7.784h-1.7l-.009-.009L30.048,41.49c-.364-.961-.693-1.862-.978-2.684V49.265H27.121V36.027H29.9l2.71,7.039c.545,1.429,1,2.658,1.333,3.671.4-1.2.857-2.5,1.351-3.853l2.615-6.849h2.805Zm25.516,1.126a4.722,4.722,0,0,0-3.351-1.126H57.243V49.265h2.026V44.391h3.61a4.722,4.722,0,0,0,3.351-1.126,4.022,4.022,0,0,0,1.195-3.048,4.067,4.067,0,0,0-1.195-3.065m-6.97.658h3.576a2.59,2.59,0,0,1,1.879.623,2.391,2.391,0,0,1,.641,1.784,2.357,2.357,0,0,1-.641,1.775,2.625,2.625,0,0,1-1.879.615H59.261Zm30.546,7.784A3.506,3.506,0,0,1,88.439,48.5a6.084,6.084,0,0,1-3.784,1.056,6.271,6.271,0,0,1-4.078-1.195A4.286,4.286,0,0,1,79.1,44.884v-.017h2.026v.017a2.779,2.779,0,0,0,.918,2.208,4.14,4.14,0,0,0,2.658.736,3.828,3.828,0,0,0,2.242-.563,1.88,1.88,0,0,0,.779-1.628,1.54,1.54,0,0,0-.641-1.325,6.622,6.622,0,0,0-2.329-.84l-1.134-.242a6.373,6.373,0,0,1-3.082-1.342,3.277,3.277,0,0,1-1.048-2.571,3.159,3.159,0,0,1,1.264-2.623,5.478,5.478,0,0,1,3.42-.978,5.911,5.911,0,0,1,3.914,1.117,3.941,3.941,0,0,1,1.351,3.074v.017h-2v-.017a2.526,2.526,0,0,0-.84-1.87,3.869,3.869,0,0,0-2.407-.6,3.478,3.478,0,0,0-1.974.476,1.567,1.567,0,0,0-.675,1.359,1.591,1.591,0,0,0,.606,1.359,5.7,5.7,0,0,0,2.251.849l1.152.242a7.064,7.064,0,0,1,3.264,1.394,3.21,3.21,0,0,1,1,2.476m11.775,0a3.506,3.506,0,0,1-1.368,2.909A6.084,6.084,0,0,1,96.43,49.56a6.271,6.271,0,0,1-4.078-1.195,4.286,4.286,0,0,1-1.481-3.481v-.017H92.9v.017a2.779,2.779,0,0,0,.918,2.208,4.14,4.14,0,0,0,2.658.736,3.828,3.828,0,0,0,2.242-.563,1.88,1.88,0,0,0,.779-1.628,1.54,1.54,0,0,0-.641-1.325,6.622,6.622,0,0,0-2.329-.84l-1.134-.242a6.373,6.373,0,0,1-3.082-1.342,3.277,3.277,0,0,1-1.048-2.571,3.159,3.159,0,0,1,1.264-2.623,5.478,5.478,0,0,1,3.42-.978,5.911,5.911,0,0,1,3.914,1.117,3.941,3.941,0,0,1,1.351,3.074v.017h-2v-.017a2.526,2.526,0,0,0-.84-1.87,3.869,3.869,0,0,0-2.407-.6,3.478,3.478,0,0,0-1.974.476,1.567,1.567,0,0,0-.675,1.359,1.591,1.591,0,0,0,.606,1.359,5.7,5.7,0,0,0,2.251.849l1.152.242a7.064,7.064,0,0,1,3.264,1.394,3.21,3.21,0,0,1,1,2.476M73.469,36.027H71.183L66.014,49.265h2.1l1.281-3.429h5.87l1.273,3.429h2.1ZM70.031,44.07l2.286-6.061L74.6,44.07Z" transform="translate(0.091)"/></g></g></svg>