<svg xmlns="http://www.w3.org/2000/svg" width="37.877" height="51.875" viewBox="0 0 37.877 51.875"><defs><style>.a{fill:none;}</style></defs><g transform="translate(0 -53)"><rect class="a" width="37.866" height="51.876" transform="translate(0 53)"/><path d="M3.078,522.072v5.459H9.524V530.2H3.078v7.724H0V519.4H10.047v2.672Z" transform="translate(0 -438.43)"/><path d="M134.87,525.15a5.794,5.794,0,0,1-3.369,5.344,8.489,8.489,0,0,1-3.716.755h-2.207v6.678H122.5V519.4h5.749a7.118,7.118,0,0,1,4.878,1.51,5.23,5.23,0,0,1,1.742,4.24m-3.248.115a2.933,2.933,0,0,0-.987-2.381,4.229,4.229,0,0,0-2.9-.872h-2.1v6.68h1.975a4.505,4.505,0,0,0,2.962-.872,3.163,3.163,0,0,0,1.048-2.556" transform="translate(-109.665 -438.43)"/><path d="M266.1,530.1a4.639,4.639,0,0,1-1.742,3.833,7.628,7.628,0,0,1-4.878,1.395,9.9,9.9,0,0,1-2.5-.349,6.192,6.192,0,0,1-1.917-.755v-3.369a6.4,6.4,0,0,0,2.149,1.278,6.987,6.987,0,0,0,2.619.524,3.56,3.56,0,0,0,2.207-.581,2.057,2.057,0,0,0,.754-1.742,2.38,2.38,0,0,0-.754-1.742,12.194,12.194,0,0,0-2.91-1.913,10.084,10.084,0,0,1-3.136-2.382,4.552,4.552,0,0,1-1.048-3.02,4.77,4.77,0,0,1,.755-2.672,5.364,5.364,0,0,1,2.207-1.859,7.5,7.5,0,0,1,3.311-.639,11.048,11.048,0,0,1,2.381.233,9.089,9.089,0,0,1,1.685.465v3.248a6.61,6.61,0,0,0-1.8-.988,6.96,6.96,0,0,0-2.142-.35,3.564,3.564,0,0,0-2.208.638,2.068,2.068,0,0,0-.813,1.685,2.693,2.693,0,0,0,.291,1.22,2.738,2.738,0,0,0,.871.987,18.5,18.5,0,0,0,2.1,1.278,12.387,12.387,0,0,1,3.544,2.555,5.214,5.214,0,0,1,.987,3.02" transform="translate(-228.229 -435.479)"/><path d="M10.182,300.45v18.933H7.22V304.109a11.432,11.432,0,0,1-3.89,1.685v-2.5c1.161-.407,2.207-.813,3.077-1.22.813-.524,1.685-1.048,2.5-1.626Z" transform="translate(-2.981 -242.421)"/><path d="M108.615,319.876H97v-1.451a5.648,5.648,0,0,1,.929-3.137,15.65,15.65,0,0,1,3.426-3.484c1.048-.872,1.859-1.51,2.382-2.033a5,5,0,0,0,1.162-1.626,4.28,4.28,0,0,0,.407-1.742,2.893,2.893,0,0,0-.813-2.149,3,3,0,0,0-2.208-.755,5.824,5.824,0,0,0-2.323.524,8.877,8.877,0,0,0-2.265,1.572v-2.909a8.65,8.65,0,0,1,2.382-1.277,8.287,8.287,0,0,1,2.789-.408,5.908,5.908,0,0,1,4.066,1.336,5.377,5.377,0,0,1,1.394,3.772,7.124,7.124,0,0,1-.465,2.555,7.263,7.263,0,0,1-1.451,2.207,33.817,33.817,0,0,1-3.485,3.02,14.546,14.546,0,0,0-2.1,1.916,2.45,2.45,0,0,0-.638,1.452v.059h8.363v2.554Z" transform="translate(-86.836 -242.913)"/><path d="M232.228,311.027a13.208,13.208,0,0,1-1.684,7.2,5.471,5.471,0,0,1-4.82,2.5,5.167,5.167,0,0,1-4.588-2.382,12.43,12.43,0,0,1-1.626-6.852c0-3.248.58-5.691,1.684-7.376a5.58,5.58,0,0,1,4.937-2.555c4.065,0,6.1,3.136,6.1,9.467m-3.02.233a15.4,15.4,0,0,0-.755-5.459,2.571,2.571,0,0,0-2.439-1.742c-2.323,0-3.426,2.5-3.426,7.439a12.025,12.025,0,0,0,.871,5.169,2.715,2.715,0,0,0,2.556,1.742,2.551,2.551,0,0,0,2.439-1.8,18.057,18.057,0,0,0,.755-5.344Z" transform="translate(-196.51 -243.414)"/></g></svg>