<svg xmlns="http://www.w3.org/2000/svg" width="66.88" height="35.062" viewBox="0 0 66.88 35.062"><defs><style>.a{fill:none;}</style></defs><g transform="translate(0 -23.846)"><rect class="a" width="66.88" height="34.902" transform="translate(0 23.926)"/><path d="M283.974,220.911v-8.9a52.746,52.746,0,0,1-3.14,5.024c-1.047,1.466-1.988,2.723-2.93,3.873Zm3.349-13.607v13.607h2.515l1.257,2.825h-3.772v4.605h-3.349v-4.605H274.45v-2.825A72.275,72.275,0,0,0,280,213.794a46.17,46.17,0,0,0,3.873-6.594h3.453Z" transform="translate(-258.018 -183.354)"/><path d="M584.569,208.94l-7.012,9-.628.942h0V208.94H573.37v21.142h3.558V219.721h0l.628.942,7.222,9.42h4.71l-9.106-11.095,8.478-10.048Z" transform="translate(-539.04 -184.99)"/><path d="M8.373,617.28c0,3.035-1.466,4.6-4.291,4.6a3.864,3.864,0,0,1-3.036-1.151A4.6,4.6,0,0,1,0,617.385V611H1.779v6.385c0,1.988.838,2.93,2.515,2.93a1.915,1.915,0,0,0,1.779-.732,3.125,3.125,0,0,0,.628-2.1V611H8.378Z" transform="translate(0 -562.977)"/><path d="M174.81,611v10.78h5.966v-1.57h-4.186V611Z" transform="translate(-164.344 -562.977)"/><path d="M256.97,611v1.57H260v9.21h1.884v-9.21h3.035V611Z" transform="translate(-241.584 -562.977)"/><path d="M415.824,614.036a1.5,1.5,0,0,0-.523-1.151,2.052,2.052,0,0,0-1.466-.419h-1.466v3.453h1.36a1.987,1.987,0,0,0,1.361-.523,1.265,1.265,0,0,0,.733-1.36m.318,7.746-1.257-3.14c-.314-.838-.838-1.257-1.465-1.257h-.838v4.4H410.8V611h3.454a3.9,3.9,0,0,1,2.616.733,2.638,2.638,0,0,1,.942,2.1,2.922,2.922,0,0,1-.628,1.884,3.375,3.375,0,0,1-1.779,1.047h0a1.391,1.391,0,0,1,.628.523,2.275,2.275,0,0,1,.523.838l1.676,3.454h-2.092Z" transform="translate(-386.204 -562.977)"/><path d="M553.923,612.57h0a6.55,6.55,0,0,1-.209.733l-1.465,4.186h3.243l-1.466-4.186a3.347,3.347,0,0,0-.1-.733m3.14,9.211-.942-2.721H551.83l-.942,2.721H548.9L552.982,611h1.989l4.082,10.781Z" transform="translate(-516.036 -562.977)"/><path d="M793.443,611v4.5h-5.024V611H786.64v10.78h1.779v-4.71h5.024v4.71h1.779V611Z" transform="translate(-739.541 -562.977)"/><path d="M972.162,616.234a3.4,3.4,0,0,0-1.047-2.721,4.3,4.3,0,0,0-2.931-.943h-1.465v7.641h1.465a3.876,3.876,0,0,0,2.931-1.047,4.337,4.337,0,0,0,1.047-2.93m1.884,0a5.541,5.541,0,0,1-.732,2.93,4.591,4.591,0,0,1-2.1,1.884,7.166,7.166,0,0,1-3.035.628H964.94V611h3.349a5.879,5.879,0,0,1,4.291,1.361,5.047,5.047,0,0,1,1.465,3.873" transform="translate(-907.166 -562.977)"/></g></svg>