<svg xmlns="http://www.w3.org/2000/svg" width="54.859" height="29.346" viewBox="0 0 54.859 29.346"><defs><style>.a{fill:none;}</style></defs><g transform="translate(0 -30)"><rect class="a" width="54.859" height="29.346" transform="translate(0 30)"/><path d="M684.327,327.4a3.034,3.034,0,0,0-.972-2.388,5.037,5.037,0,0,0-2.874-.729h-2.875v6.68h2.875a3.833,3.833,0,0,0,2.874-.972,4.826,4.826,0,0,0,.972-2.591m.486,14.98-2.632-5.951c-.728-1.66-1.659-2.389-2.874-2.389h-1.663v8.583H674.08V321.41h6.927a8.607,8.607,0,0,1,5.223,1.417,5.172,5.172,0,0,1,1.9,4.048,7.387,7.387,0,0,1-1.174,3.806,6.777,6.777,0,0,1-3.32,2.145h0c0,.243.486.486.972.972a4,4,0,0,1,.972,1.663l3.32,6.923Z" transform="translate(-634.043 -287.344)"/><path d="M13.563,321.41v8.826h-10V321.41H0v20.972H3.562v-9.029h10v9.029h3.361V321.41Z" transform="translate(0 -287.344)"/><path d="M351,331.694a7.159,7.159,0,0,0-2.145-5.464,8.724,8.724,0,0,0-5.709-1.9h-2.874v15.017h2.874a7.727,7.727,0,0,0,5.709-2.146A6.94,6.94,0,0,0,351,331.694m3.6,0a11.478,11.478,0,0,1-1.417,5.708,10.43,10.43,0,0,1-4.048,3.805,12.305,12.305,0,0,1-6.194,1.417H336.71V321.41h6.681c3.806,0,6.68.972,8.583,2.632,1.66,1.66,2.631,4.293,2.631,7.652" transform="translate(-316.711 -287.344)"/></g></svg>