<svg xmlns="http://www.w3.org/2000/svg" xmlns:xlink="http://www.w3.org/1999/xlink" width="72.604" height="54.595" viewBox="0 0 72.604 54.595"><defs><style>.a{fill:none;}.b{clip-path:url(#a);}</style><clipPath id="a"><rect class="a" width="72.604" height="27.904"/></clipPath></defs><g transform="translate(68.94 -4.1)"><path d="M331.852,8.07,328.3,4.1H307.247L303.7,8.07l.048,20.683h28.2ZM307.991,5.826h19.516L329.1,7.6H306.36Zm-2.518,21.153-.048-17.6h24.7l.048,17.6Z" transform="translate(-350.461)"/><path d="M463.82,128.338l-1.262-1.3-2.988,2.988V122.6H457.75v7.422l-2.988-2.988L453.5,128.3l5.184,5.178Z" transform="translate(-491.345 -111.447)"/><rect width="10.785" height="1.774" transform="translate(-38.03 23.431)"/><g class="b" transform="translate(-68.94 30.79)"><path d="M89.6,704.955h.984v-.567h6.991v.536h1.012V698.74H89.6Zm.984-5.367h6.99v1.536h-6.99Zm0,2.34h6.99v1.607h-6.99Z" transform="translate(-80.164 -684.087)"/><path d="M175.75,597.741h.952v-.714h3.473v.655h.984V592h-5.41Zm.952-4.829h3.473v3.22H176.7Z" transform="translate(-161.186 -583.7)"/><g transform="translate(6.976 6.977)"><path d="M51.967,575.275c.76.521,1.967,1.369,2.415,1.759l.7-.714c-.433-.3-2.206-1.386-2.8-1.714a1.9,1.9,0,0,0,.075-.268h2.863V573.5h-2.7c.015-.224.03-.432.03-.625v-.927h2.281v-.85H50.64c.119-.3.238-.611.328-.909.164.015.254-.03.3-.134l-1.131-.3a8.346,8.346,0,0,1-1.547,3.1,6.189,6.189,0,0,1,.731.492,7.4,7.4,0,0,0,.924-1.4H51.6v.909a4.838,4.838,0,0,1-.03.64H48.4v.833h2.981c-.328.939-1.131,1.968-3.116,2.743a3.508,3.508,0,0,1,.639.7,6.276,6.276,0,0,0,3.056-2.5" transform="translate(-48.27 -569.76)"/><path d="M334.834,666.68H324.7v.7h9.137v.893h-8.69v.7h8.69v.893H324.61v.714H328.9l-.507.463a8.8,8.8,0,0,1,2.415,1.6l.655-.626a7.415,7.415,0,0,0-2.191-1.431h5.56Z" transform="translate(-308.163 -660.912)"/><path d="M302.54,574.424l.313.909a.222.222,0,0,0,.194-.194c.6-.045,1.327-.1,2.147-.179v.686h.939v-.761c.8-.074,1.639-.149,2.474-.238l.015-.626-2.489.179v-.76h1.982v-.686h-1.982v-.746h2.386v-.7h-2.386v-.774c.193-.03.283-.1.3-.209l-1.237-.074v1.056H302.7v.7h2.49v.746h-2.043v.686h2.043v.82Z" transform="translate(-287.406 -570.221)"/><path d="M417.728,575.631h.952v-.73h3.046v-.686h-3.044v-.774H420.9v-.687h-2.221v-.745h2.7v-.7h-2.7v-.774c.193-.03.268-.1.283-.209l-1.237-.074v1.056h-2.534v.7h2.534v.745H415.7v.686h2.027v.774H415v.686h2.728Z" transform="translate(-393.173 -570.221)"/><path d="M298.521,748.554l.774.581a4.088,4.088,0,0,0,2.221-2.757l-.864-.3a3.77,3.77,0,0,1-2.131,2.475" transform="translate(-283.626 -735.586)"/><path d="M472.36,744.81l-.76.507a10.456,10.456,0,0,1,2.728,2.609l.82-.567a9.941,9.941,0,0,0-2.787-2.549" transform="translate(-446.404 -734.391)"/><path d="M370.408,747.937h-2.785c-.79,0-.924-.059-.924-.417v-1.607c.193-.015.268-.09.283-.194l-1.282-.089v1.893c0,1.044.373,1.3,1.863,1.3h2.951c1.148,0,1.461-.344,1.58-1.893a2.9,2.9,0,0,1-.893-.343c-.06,1.208-.164,1.357-.79,1.357" transform="translate(-346.807 -735.163)"/><path d="M693.782,575.51l-.952.387a19.666,19.666,0,0,0,4.712,6.01,4.782,4.782,0,0,1,.833-.893,15.627,15.627,0,0,1-4.591-5.5" transform="translate(-654.467 -575.168)"/><path d="M551,576.567c.194.015.3-.03.357-.134L550.072,576a13.351,13.351,0,0,1-4.532,5.754,6.132,6.132,0,0,1,.79.714,14.8,14.8,0,0,0,4.666-5.9" transform="translate(-515.943 -575.629)"/><path d="M568.816,666.7H560.17v.984h3.205c-.357,2.624-1.208,5.127-4.815,6.335a3.427,3.427,0,0,1,.641.849c4-1.428,4.831-4.323,5.232-7.184h4.1c-.193,3.965-.432,5.515-.82,5.9-.149.164-.327.193-.641.193-.357,0-1.327-.015-2.34-.1a2.322,2.322,0,0,1,.328,1c.64.045,1.282.059,1.786.059.909,0,1.357-.044,1.774-.521.521-.567.746-2.3.984-7.11,0-.119.015-.253.015-.357l-.567-.059Z" transform="translate(-528.188 -660.921)"/><path d="M905.913,576.683a3.606,3.606,0,0,1,.626-.79,9.269,9.269,0,0,1-2.891-1.52,22.082,22.082,0,0,0,2.221-1.64c.149,0,.268-.014.313-.074l-.893-.671a17.723,17.723,0,0,1-2.236,1.878,10.248,10.248,0,0,1-.952-1.012,24.516,24.516,0,0,0,2.146-1.655.327.327,0,0,0,.3-.074l-.893-.655a15.8,15.8,0,0,1-2,1.774,8.872,8.872,0,0,1-1.058-1.953l-.8.254a11.167,11.167,0,0,0,3,4.293h-2.851v1.19a2.3,2.3,0,0,1-1.446,2.221,2.9,2.9,0,0,1,.655.626,3.144,3.144,0,0,0,1.655-3.22h2.191v1.476c0,.745,0,1.3,1.059,1.3h.76c1.131,0,1.163-.328,1.237-1.071a2.332,2.332,0,0,1-.746-.373c-.03.626-.045.7-.6.7h-.492c-.283,0-.343,0-.343-.433v-1.6a10.135,10.135,0,0,0,2.042,1.029" transform="translate(-847.886 -570.258)"/><path d="M904.874,719.877c.03-.045.089-.09.1-.149l-.567-.238-.164.045h-5.1v.745h1.223l-.6.179a6.317,6.317,0,0,0,1.654,2.191,9.035,9.035,0,0,1-2.921,1.089,3.026,3.026,0,0,1,.476.745,10.448,10.448,0,0,0,3.16-1.3,9.4,9.4,0,0,0,3.279,1.281,4.412,4.412,0,0,1,.612-.849,9.456,9.456,0,0,1-3.1-1,6.446,6.446,0,0,0,1.937-2.742m-2.683,2.268a5.009,5.009,0,0,1-1.6-1.864h3.146a5.53,5.53,0,0,1-1.547,1.864" transform="translate(-847.905 -710.578)"/><path d="M802.539,590.477H799.6c.089-.492.193-1.012.268-1.52h2.43v.328h.909v-3.652h-1.923a9.7,9.7,0,0,0,2.653-3.4.361.361,0,0,0,.164-.134l-.671-.357-.179.06h-4.71v.833h4.128a10.622,10.622,0,0,1-5.112,4.189,4.1,4.1,0,0,1,.6.745,12.487,12.487,0,0,0,2.042-1.118h2.1v1.7h-3.145c-.164,1.1-.448,2.519-.671,3.429l.85.134.1-.447h2.832c-.164,1.714-.328,2.445-.582,2.669a.794.794,0,0,1-.567.134c-.283,0-1.1-.015-1.953-.09a2.137,2.137,0,0,1,.3.865c.611.03,1.222.045,1.655.045.642,0,1.012-.045,1.312-.357.387-.373.6-1.327.8-3.682l.045-.3-.522-.089Z" transform="translate(-752.964 -581.027)"/><path d="M818.949,606.646a8.616,8.616,0,0,0-1.744-1.326l-.6.551a8.579,8.579,0,0,1,1.714,1.387Z" transform="translate(-770.88 -603.203)"/></g></g></g></svg>