<svg xmlns="http://www.w3.org/2000/svg" width="51.76" height="47.346" viewBox="0 0 51.76 47.346"><defs><style>.a{fill:none;}</style></defs><g transform="translate(0 -6)"><rect class="a" width="51.76" height="47.346" transform="translate(0 6)"/><path d="M51.76,218.732H0l2.981-3.769H48.775Zm-6.36-8.04H30.6c-.05.019-.1.03-.149.046-.119.039-.242.073-.36.107s-.241.069-.367.1l-.367.088c-.145.038-.3.069-.444.1l-.229.046-.073.011q-.373.069-.758.115c-.161.019-.321.038-.482.053a14.75,14.75,0,0,1-2.931,0c-.161-.015-.322-.034-.482-.053-.252-.027-.509-.069-.758-.115l-.072-.011c-.077-.015-.153-.027-.233-.046-.15-.027-.3-.059-.444-.1-.123-.027-.245-.059-.367-.088s-.245-.065-.367-.1-.242-.069-.36-.107c-.049-.015-.1-.027-.149-.046H6.364L4,213.674H47.757Zm-31.08-4.577c-.275-.322-.539-.653-.789-1H10.772l-.788,1H14.32m26.668-1H38.275c-.249.344-.513.677-.788,1H41.78Zm-5.541,2.967c-.046.042-.1.077-.142.115-.164.131-.333.257-.509.379s-.348.245-.525.36q-.212.144-.436.275c-.1.059-.211.126-.317.188a0,0,0,0,1,0,0H44.382l-1.58-2H36.235c.245-.222.482-.456.712-.7h0a5.206,5.206,0,0,1-1.519.7,31.218,31.218,0,0,1-9.513,1.1,31.281,31.281,0,0,1-9.521-1.1,5.109,5.109,0,0,1-1.519-.7l0,0c.23.241.467.471.708.693H8.961l-1.58,2H18.3a0,0,0,0,1,0,0c-.107-.059-.214-.126-.318-.188q-.223-.132-.436-.275c-.178-.115-.352-.233-.524-.36s-.345-.253-.509-.379c-.05-.038-.1-.072-.141-.115a.527.527,0,0,1-.081-.065c.241.142,2.243,1.179,9.621,1.179s9.377-1.037,9.62-1.179c-.027.023-.053.046-.08.065m-24.83-11.726s.138,2.018,15.284,2.018,15.276-2.027,15.276-2.027a1.828,1.828,0,0,0,.011-.211,15.288,15.288,0,0,0-30.575,0C10.615,196.251,10.615,196.32,10.619,196.358Zm30.426,1.8c.059-.421.1-.865.123-1.3,0-.046-.283,2.3-15.265,2.3s-15.264-2.3-15.264-2.3.059.865.122,1.293c0,0,.482,2.25,15.146,2.25,14.2,0,15.1-2.124,15.138-2.243m-30.116,1c.08.436.2.857.31,1.278a0,0,0,0,0,0,0l0,0c.1.153,1.393,2.212,14.658,2.212s14.564-2.059,14.658-2.212l0,0,0,0a12.934,12.934,0,0,0,.31-1.278c-.084.178-1.278,2.25-14.974,2.25s-14.9-2.077-14.981-2.25m28.539,4.029c.131-.249.256-.5.372-.757l-.015,0s-.23.421-1.691.89a17.8,17.8,0,0,1-2.132.5,59.683,59.683,0,0,1-10.089.662,59.917,59.917,0,0,1-10.089-.662,16.893,16.893,0,0,1-2.132-.5c-1.462-.467-1.691-.89-1.691-.89h-.015c.111.256.237.509.367.754H12.3l-.506.638H12.7c-.02-.031-.039-.059-.059-.1a.866.866,0,0,0,.119.1c.4.268,1.993,1.2,7.806,1.488,1.488.073,3.249.119,5.335.119s3.849-.046,5.33-.119c5.757-.287,7.389-1.213,7.8-1.484l.935,0Z" transform="translate(0 -170.117)"/></g></svg>