<svg xmlns="http://www.w3.org/2000/svg" width="149.825" height="69.78" viewBox="0 0 149.825 69.78"><defs><style>.a{fill:#fff;}</style></defs><rect width="149.825" height="69.78"/><g transform="translate(8.74 5.965)"><path class="a" d="M12.959,5a2.5,2.5,0,0,1,2.081.971,4.935,4.935,0,0,1,.694,2.636A4.552,4.552,0,0,1,14.9,11.52a2.858,2.858,0,0,1-2.358.971h0V10.827h0a1.461,1.461,0,0,0,1.387-.555,2.958,2.958,0,0,0,.416-1.665,4.1,4.1,0,0,0-.277-1.387A1.259,1.259,0,0,0,13.1,6.8a.989.989,0,0,0-.832.416,4.664,4.664,0,0,0-.555,1.387l-.139.694a4.7,4.7,0,0,1-.971,2.22,2.637,2.637,0,0,1-1.8.694,2.061,2.061,0,0,1-1.8-.832,4.119,4.119,0,0,1-.694-2.5A5.1,5.1,0,0,1,6.994,6.11a2.95,2.95,0,0,1,2.081-.971h0V6.8h0a1.126,1.126,0,0,0-1.11.555,2.232,2.232,0,0,0-.416,1.526,2.77,2.77,0,0,0,.277,1.249.839.839,0,0,0,.832.416.839.839,0,0,0,.832-.416,4.665,4.665,0,0,0,.555-1.387l.139-.832a6.335,6.335,0,0,1,.971-2.358A3.934,3.934,0,0,1,12.959,5ZM11.294,54.248a5.439,5.439,0,0,0-.971,2.358l-.139.832a2.608,2.608,0,0,1-.555,1.387.839.839,0,0,1-.832.416.989.989,0,0,1-.832-.416,2.77,2.77,0,0,1-.277-1.249A2.492,2.492,0,0,1,8.1,56.051a2.09,2.09,0,0,1,1.11-.555h0V53.832h0a2.505,2.505,0,0,0-2.081.971,3.919,3.919,0,0,0-.694,2.775,4.119,4.119,0,0,0,.694,2.5,2.237,2.237,0,0,0,1.8.832,2.637,2.637,0,0,0,1.8-.694,4.135,4.135,0,0,0,.971-2.22l.139-.694c.139-.694.277-1.249.555-1.387a.839.839,0,0,1,.832-.416,1.259,1.259,0,0,1,.971.416c.277.277.277.694.277,1.387a2.958,2.958,0,0,1-.416,1.665,1.461,1.461,0,0,1-1.387.555h0v1.665h0a3.347,3.347,0,0,0,2.358-.971,5.438,5.438,0,0,0,.139-5.549,2.334,2.334,0,0,0-2.081-.971A1.927,1.927,0,0,0,11.294,54.248Zm4.3-21.919v1.8h0a2.149,2.149,0,0,1-1.11.277h-.971c-.555,0-.971.139-1.11.416-.277.277-.277.555-.277,1.11v2.22h3.468v1.8H6.577V35.381a2.975,2.975,0,0,1,.555-1.665l-.139.139a.3.3,0,0,1,.277-.277,2.237,2.237,0,0,1,1.8-.832,2.251,2.251,0,0,1,2.22,1.526,2.488,2.488,0,0,1,.694-.971,2.77,2.77,0,0,1,1.249-.277l1.387-.139a3.477,3.477,0,0,1,.971-.555ZM9.213,34.271a1.259,1.259,0,0,0-.971.416,1.5,1.5,0,0,0-.277,1.11v2.22h2.775V35.8a1.575,1.575,0,0,0-.416-1.11A1.365,1.365,0,0,0,9.213,34.271ZM6.577,28.584h9.017v-1.8H6.577ZM8.1,15.959H6.577v6.659h9.017V15.959H14.069v4.994H11.71V16.514H10.184v4.439H8.1Zm0,27.468H6.577v6.659h9.017V43.427H14.069v4.994H11.71V43.982H10.184v4.439H8.1ZM19.479,61.184H31.548L40.7,48.7l-5.965-8.324ZM72.057,5.277H59.987L52.5,15.543l5.965,8.324Zm-38.844,0H21.144L61.791,61.184H73.86Z" transform="translate(-6.3 -4.306)"/><rect class="a" width="2.497" height="55.907" transform="translate(75.467 0.971)"/><g transform="translate(87.12)"><path class="a" d="M74.094,31A17.04,17.04,0,0,0,82,35.02l5.688-7.907c-3.191-.832-4.162-1.387-5.549-2.5-1.665-1.249-2.081-2.5-2.081-4.855A5.65,5.65,0,0,1,82.7,14.627c1.8-1.249,3.746-1.665,7.214-1.665,9.433,0,12.485,4.3,14.705,7.63l5.41-7.491a21.2,21.2,0,0,0-3.746-4.162C102.811,5.887,96.707,4.5,89.77,4.5c-5.827,0-11.376,1.387-14.844,4.023A15.153,15.153,0,0,0,69.1,20.037,15.94,15.94,0,0,0,74.094,31Z" transform="translate(-69.1 -4.5)"/><path class="a" d="M109.515,27.533c-2.5-2.358-5.965-3.746-11.514-5.133l-5.827,8.046.971.277a17.114,17.114,0,0,1,7.769,3.329,5.3,5.3,0,0,1,2.358,4.717c0,2.913-.694,4.578-2.775,6.1s-4.578,2.081-8.462,2.081c-6.659,0-13.457-2.913-16.37-9.988L69.7,45.012A20.658,20.658,0,0,0,74.417,50.7c3.884,3.191,10.266,4.855,17.341,4.855,6.52,0,12.763-1.665,16.37-4.578,4.023-3.191,6.1-6.8,6.1-12.485A14.566,14.566,0,0,0,109.515,27.533Z" transform="translate(-68.868 2.432)"/></g></g></svg>